<svg width="34" height="34" viewBox="0 0 34 34" fill="none" xmlns="http://www.w3.org/2000/svg">
<path d="M14.1667 19.8333L29.75 4.25" stroke="#615EF0" stroke-width="2" stroke-linecap="round" stroke-linejoin="round"/>
<path d="M29.75 4.25L20.5416 29.75C20.4795 29.8856 20.3797 30.0006 20.2541 30.0811C20.1286 30.1617 19.9825 30.2046 19.8333 30.2046C19.6841 30.2046 19.5381 30.1617 19.4125 30.0811C19.2869 30.0006 19.1871 29.8856 19.125 29.75L14.1666 19.8333L4.24998 14.875C4.11434 14.8128 3.99941 14.7131 3.91883 14.5875C3.83825 14.4619 3.79541 14.3159 3.79541 14.1667C3.79541 14.0175 3.83825 13.8714 3.91883 13.7458C3.99941 13.6203 4.11434 13.5205 4.24998 13.4583L29.75 4.25Z" stroke="#615EF0" stroke-width="2" stroke-linecap="round" stroke-linejoin="round"/>
</svg>
